<svg preserveAspectRatio="none" overflow="visible" style="display: block;" width="16" height="16" viewBox="0 0 16 16" fill="none" xmlns="http://www.w3.org/2000/svg">
<g id="ph:moon-fill">
<path id="Vector" d="M14.7212 9.38813C14.3175 10.7062 13.5083 11.8634 12.4087 12.695C11.4434 13.4215 10.2947 13.8647 9.09152 13.9746C7.88834 14.0846 6.67833 13.857 5.5973 13.3174C4.51627 12.7779 3.60702 11.9477 2.97159 10.9201C2.33616 9.89255 1.99971 8.70819 2 7.5C1.9957 6.08979 2.45414 4.71711 3.305 3.5925C4.13659 2.493 5.29377 1.68378 6.61188 1.28C6.69875 1.25325 6.79127 1.25069 6.87949 1.27259C6.96771 1.29449 7.04829 1.34003 7.11257 1.40431C7.17684 1.46858 7.22238 1.54916 7.24428 1.63738C7.26619 1.7256 7.26362 1.81813 7.23688 1.905C6.94865 2.85839 6.92448 3.87212 7.16695 4.83817C7.40942 5.80421 7.90943 6.68637 8.61372 7.39066C9.318 8.09494 10.2002 8.59496 11.1662 8.83742C12.1323 9.07989 13.146 9.05572 14.0994 8.7675C14.1862 8.74075 14.2788 8.73819 14.367 8.76009C14.4552 8.78199 14.5358 8.82753 14.6001 8.89181C14.6643 8.95608 14.7099 9.03666 14.7318 9.12488C14.7537 9.2131 14.7511 9.30563 14.7244 9.3925L14.7212 9.38813Z" fill="white"/>
</g>
</svg>
